<?xml version="1.0" encoding="utf-8"?>
<!-- Generator: Adobe Illustrator 24.3.0, SVG Export Plug-In . SVG Version: 6.00 Build 0)  -->
<svg version="1.1" id="_x31_" xmlns="http://www.w3.org/2000/svg" xmlns:xlink="http://www.w3.org/1999/xlink" x="0px" y="0px"
	 width="1200px" height="350px" viewBox="0 0 1200 350" enable-background="new 0 0 1200 350" xml:space="preserve">
<g>
	<g>
		<path fill="#CBAE56" d="M1048.402,172.507c9.767-39.884-8.547-62.268-37.849-76.105c-29.302-13.837-36.221-35-17.093-58.198
			c7.298-8.851,16.253-16.275,24.541-22.079h-34.715l-85.16,317.748h44.457C1029.752,249.385,1039.079,210.574,1048.402,172.507z"/>
		<path fill="#CBAE56" d="M1181.076,16.126h-123.252c-48.166,29.447-44.435,51.453-2.911,66.846
			c47.209,17.5,69.593,62.675,40.698,131.454c-20.283,48.28-54.402,95.555-72.939,119.448h75.076L1181.076,16.126z"/>
	</g>
	<g>
		<path d="M148.823,184.034c-0.074,5.522-0.164,11.681-0.273,18.476c-0.11,6.794-0.164,12.698-0.164,17.71
			c0,6.833,0.054,13.719,0.164,20.657c0.109,6.939,0.163,13.279,0.163,19.021c-0.947,0.236-4.295,0.532-10.043,0.887
			c-5.75,0.355-10.626,0.532-14.627,0.532c-16.447,0-31.238-1.693-44.373-5.076c-13.136-3.385-25.27-9.479-36.404-18.285
			c-7.351-5.747-13.246-12.952-17.684-21.612c-4.44-8.66-6.659-18.558-6.659-29.691c0-12.298,3.056-23.288,9.169-32.967
			c6.113-9.677,14.846-17.792,26.198-24.342c9.169-5.529,19.993-9.751,32.475-12.662c12.48-2.909,26.252-4.366,41.316-4.366
			c1.891,0,3.584,0.019,5.076,0.055c1.491,0.037,2.929,0.055,4.312,0.055l3.93,30.236c-0.729,0-2.038,0-3.93,0
			c-1.893,0-3.676,0-5.349,0c-7.496,0-15.429,0.619-23.797,1.855c-8.37,1.239-15.937,3.24-22.705,6.004
			c-9.169,3.711-16.393,8.988-21.668,15.827c-5.277,6.841-7.914,14.374-7.914,22.596c0,9.098,2.091,16.739,6.277,22.923
			c4.184,6.186,9.514,11.026,15.992,14.519c5.093,2.692,10.715,4.748,16.865,6.167c6.149,1.42,12.499,2.275,19.049,2.566
			c0-1.382-0.019-6.294-0.055-14.737c-0.037-8.441-0.128-20.558-0.273-36.349H148.823z"/>
		<path d="M245.962,173.335c-5.968,1.82-12.662,4.113-20.085,6.878c-7.423,2.767-17.066,6.841-28.927,12.226
			c0,1.82-0.019,5.131-0.054,9.934c-0.038,4.802-0.055,9.678-0.055,14.626c0,7.715,0.072,16.339,0.218,25.871
			c0.145,9.535,0.218,15.211,0.218,17.029h-33.512c0-2.183,0.054-7.641,0.164-16.374c0.109-8.733,0.163-20.413,0.163-35.039
			c0-6.986-0.037-15.791-0.109-26.417c-0.074-10.624-0.147-21.832-0.218-33.621h32.748l-0.109,16.047l0.218,0.109
			c6.913-4.293,14.335-8.312,22.268-12.061c7.931-3.748,14.117-6.278,18.557-7.587L245.962,173.335z"/>
		<path d="M336.69,204.119h-75.756c0.072,5.604,1.654,10.789,4.749,15.554c3.092,4.768,7.805,8.643,14.136,11.626
			c4.438,1.965,9.115,3.367,14.027,4.203c4.912,0.837,10.315,1.255,16.21,1.255c4.656,0,8.695-0.071,12.117-0.218
			c3.42-0.145,5.93-0.255,7.532-0.328l-3.384,23.906c-1.528,0.145-4.093,0.308-7.696,0.491c-3.602,0.181-7.733,0.273-12.389,0.273
			c-12.662,0-23.924-1.401-33.784-4.203c-9.862-2.801-18.249-7.041-25.161-12.717c-5.823-4.803-10.517-10.734-14.082-17.794
			c-3.567-7.057-5.349-14.846-5.349-23.358c0-8.442,1.31-15.973,3.93-22.596c2.62-6.621,6.877-12.952,12.772-18.994
			c4.875-5.021,10.916-8.877,18.12-11.571c7.204-2.691,14.518-4.038,21.941-4.038c7.859,0,14.881,1.11,21.068,3.328
			c6.185,2.221,11.497,5.55,15.937,9.988c5.24,5.24,9.06,11.555,11.462,18.94C335.489,185.253,336.69,194.004,336.69,204.119z
			 M305.361,189.491c-0.655-7.131-2.857-12.807-6.604-17.029c-3.749-4.219-8.896-6.33-15.446-6.33
			c-6.405,0-11.68,2.092-15.828,6.276c-4.148,4.185-6.841,9.879-8.078,17.083H305.361z"/>
		<path d="M435.04,201.882c0,17.813-0.019,31.554-0.054,41.223c-0.038,9.669-0.055,15.266-0.055,16.793
			c-1.165,0.153-5.895,0.502-14.191,1.044c-8.296,0.541-17.102,0.813-26.416,0.813c-6.113,0-13.082-0.51-20.904-1.529
			c-7.824-1.018-14.355-2.655-19.594-4.912c-6.696-2.909-11.936-6.749-15.719-11.516c-3.785-4.766-5.676-10.352-5.676-16.757
			c0-6.986,2.019-12.952,6.059-17.902c4.038-4.948,10.351-9.022,18.939-12.225c5.748-2.183,12.843-3.891,21.286-5.13
			c8.441-1.236,16.082-2.11,22.923-2.62c-0.218-3.93-1.256-7.15-3.111-9.661c-1.856-2.51-5.004-4.456-9.443-5.84
			c-2.912-0.944-6.132-1.618-9.661-2.02c-3.53-0.399-7.733-0.6-12.608-0.6c-4.44,0-8.224,0.074-11.353,0.218
			c-3.13,0.147-6.514,0.292-10.152,0.437l2.947-24.342c1.455-0.072,3.783-0.165,6.986-0.273c3.201-0.11,7.713-0.163,13.536-0.163
			c12.298,0,22.542,1.053,30.728,3.162c8.188,2.108,15.081,5.598,20.686,10.469c5.166,4.436,8.932,9.835,11.298,16.196
			C433.856,183.109,435.04,191.487,435.04,201.882z M403.384,222.021c0-2.329,0-5.039,0-8.133c0-3.093-0.037-6.349-0.109-9.769
			c-2.111,0.072-5.859,0.49-11.243,1.255c-5.386,0.764-10.189,2.057-14.409,3.875c-2.912,1.165-5.586,2.985-8.023,5.458
			c-2.439,2.475-3.657,5.532-3.657,9.169c0,4.077,1.073,7.314,3.22,9.715c2.146,2.403,4.93,4.258,8.351,5.568
			c2.473,0.873,5.275,1.528,8.405,1.965c3.128,0.437,6.512,0.655,10.152,0.655c0.945,0,2.037-0.018,3.275-0.055
			c1.236-0.035,2.546-0.054,3.93-0.054c0-0.946,0.017-3.166,0.055-6.659C403.365,231.517,403.384,227.188,403.384,222.021z"/>
		<path d="M528.565,236.757l-3.166,23.905c-1.02,0.072-2.729,0.146-5.13,0.219c-2.402,0.071-5.531,0.109-9.388,0.109
			c-17.684,0-31.02-3.365-40.007-10.098c-8.989-6.73-13.481-16.756-13.481-30.073c0-8.514,0.036-16.391,0.109-23.633
			c0.072-7.24,0.109-15.555,0.109-24.942h-18.12v-23.798h18.994v-29.145h32.202v29.145h37.442v23.798h-37.442
			c0,1.601-0.037,4.785-0.109,9.551c-0.074,4.767-0.109,8.678-0.109,11.734c0,2.402,0.017,5.332,0.055,8.788
			c0.036,3.456,0.054,7.078,0.054,10.86c0,7.933,2.219,13.846,6.659,17.739c4.438,3.894,12.625,5.84,24.561,5.84
			c1.382,0,2.729,0,4.039,0C527.146,236.757,528.055,236.757,528.565,236.757z"/>
		<path d="M662.124,259.898c-2.62,0-9.863-0.036-21.723-0.11c-11.863-0.071-23.652-0.109-35.368-0.109
			c-10.116,0-19.977,0.037-29.583,0.109c-9.606,0.074-16.592,0.11-20.958,0.11c0.072-3.86,0.165-12.253,0.273-25.18
			c0.11-12.926,0.163-29.295,0.163-49.103c0-8.374-0.037-19.044-0.109-32.006c-0.074-12.962-0.182-26.181-0.328-39.656
			c4.949,0,11.989,0.02,21.123,0.055c9.132,0.037,18.32,0.055,27.563,0.055c12.589,0,24.923-0.018,37.004-0.055
			c12.079-0.035,18.92-0.055,20.522-0.055v26.963c-1.239,0-6.003-0.036-14.299-0.109s-16.631-0.11-24.998-0.11
			c-4.877,0-10.553,0.019-17.029,0.055c-6.478,0.037-11.571,0.055-15.282,0.055c0,5.477-0.037,11.244-0.11,17.303
			c-0.072,6.059-0.109,11.535-0.109,16.426c3.783,0,8.604,0.019,14.464,0.055c5.857,0.037,10.679,0.054,14.463,0.054
			c9.389,0,18.175-0.035,26.363-0.109c8.186-0.071,13.407-0.109,15.664-0.109v21.722c-1.457,0-7.096-0.036-16.919-0.11
			c-9.826-0.071-18.049-0.109-24.671-0.109c-3.71,0-8.568,0.019-14.572,0.055c-6.003,0.037-10.935,0.054-14.791,0.054
			c0,8.515,0.018,15.811,0.055,21.886c0.035,6.078,0.09,11.044,0.163,14.901c4.366,0.074,10.187,0.128,17.465,0.163
			c7.276,0.037,13.863,0.055,19.758,0.055c8.296,0,15.827-0.036,22.595-0.109c6.768-0.072,11.17-0.11,13.209-0.11V259.898z"/>
		<path d="M767.567,201.882c0,17.813-0.019,31.554-0.054,41.223c-0.037,9.669-0.055,15.266-0.055,16.793
			c-1.165,0.153-5.895,0.502-14.191,1.044c-8.296,0.541-17.102,0.813-26.417,0.813c-6.113,0-13.082-0.51-20.904-1.529
			c-7.824-1.018-14.355-2.655-19.595-4.912c-6.695-2.909-11.935-6.749-15.719-11.516c-3.784-4.766-5.676-10.352-5.676-16.757
			c0-6.986,2.02-12.952,6.059-17.902c4.038-4.948,10.351-9.022,18.939-12.225c5.747-2.183,12.843-3.891,21.285-5.13
			c8.442-1.236,16.083-2.11,22.925-2.62c-0.219-3.93-1.256-7.15-3.111-9.661c-1.856-2.51-5.005-4.456-9.443-5.84
			c-2.912-0.944-6.132-1.618-9.661-2.02c-3.53-0.399-7.733-0.6-12.608-0.6c-4.44,0-8.225,0.074-11.353,0.218
			c-3.13,0.147-6.513,0.292-10.151,0.437l2.947-24.342c1.455-0.072,3.783-0.165,6.986-0.273c3.201-0.11,7.712-0.163,13.536-0.163
			c12.297,0,22.542,1.053,30.728,3.162c8.188,2.108,15.081,5.598,20.685,10.469c5.167,4.436,8.932,9.835,11.299,16.196
			C766.384,183.109,767.567,191.487,767.567,201.882z M735.912,222.021c0-2.329,0-5.039,0-8.133c0-3.093-0.039-6.349-0.11-9.769
			c-2.112,0.072-5.858,0.49-11.243,1.255c-5.387,0.764-10.19,2.057-14.409,3.875c-2.912,1.165-5.586,2.985-8.024,5.458
			c-2.439,2.475-3.657,5.532-3.657,9.169c0,4.077,1.073,7.314,3.22,9.715c2.146,2.403,4.929,4.258,8.351,5.568
			c2.473,0.873,5.276,1.528,8.406,1.965c3.128,0.437,6.511,0.655,10.151,0.655c0.945,0,2.036-0.018,3.275-0.055
			c1.236-0.035,2.546-0.054,3.93-0.054c0-0.946,0.018-3.166,0.055-6.659C735.892,231.517,735.912,227.188,735.912,222.021z"/>
		<path d="M865.143,173.335c-5.968,1.82-12.662,4.113-20.085,6.878c-7.423,2.767-17.066,6.841-28.927,12.226
			c0,1.82-0.02,5.131-0.055,9.934c-0.037,4.802-0.055,9.678-0.055,14.626c0,7.715,0.071,16.339,0.218,25.871
			c0.145,9.535,0.218,15.211,0.218,17.029h-33.511c0-2.183,0.054-7.641,0.163-16.374c0.109-8.733,0.163-20.413,0.163-35.039
			c0-6.986-0.037-15.791-0.11-26.417c-0.072-10.624-0.146-21.832-0.217-33.621h32.748l-0.11,16.047l0.218,0.109
			c6.913-4.293,14.335-8.312,22.268-12.061c7.931-3.748,14.117-6.278,18.557-7.587L865.143,173.335z"/>
		<path d="M935.225,236.757l-3.165,23.905c-1.02,0.072-2.728,0.146-5.131,0.219c-2.4,0.071-5.53,0.109-9.386,0.109
			c-17.685,0-31.021-3.365-40.007-10.098c-8.988-6.73-13.482-16.756-13.482-30.073c0-8.514,0.036-16.391,0.11-23.633
			c0.071-7.24,0.11-15.555,0.11-24.942h-18.122v-23.798h18.995v-29.145h32.201v29.145h37.441v23.798h-37.441
			c0,1.601-0.037,4.785-0.11,9.551c-0.072,4.767-0.109,8.678-0.109,11.734c0,2.402,0.018,5.332,0.055,8.788
			c0.035,3.456,0.054,7.078,0.054,10.86c0,7.933,2.219,13.846,6.659,17.739c4.438,3.894,12.625,5.84,24.561,5.84
			c1.381,0,2.728,0,4.038,0C933.807,236.757,934.716,236.757,935.225,236.757z"/>
		<path d="M1048.628,259.898h-33.511c0-2.983,0.054-9.988,0.163-21.013c0.109-11.024,0.163-18.502,0.163-22.432
			c0-3.638-0.037-7.822-0.11-12.554c-0.072-4.729-0.109-8.803-0.109-12.225c-0.147-6.986-1.329-11.915-3.548-14.791
			c-2.221-2.873-5.987-4.311-11.298-4.311c-3.493,0-7.66,0.892-12.499,2.675c-4.84,1.784-9.588,4.022-14.244,6.713l0.327,77.939
			h-33.511c0-5.24,0.054-15.774,0.163-31.601c0.109-15.829,0.163-33.201,0.163-52.123c0-9.897-0.037-21.304-0.11-34.222
			c-0.072-12.916-0.146-26.943-0.217-42.081h33.511l-0.437,58.728l0.218,0.11c6.768-3.713,14.009-6.823,21.723-9.334
			c7.712-2.51,14.444-3.765,20.194-3.765c10.043,0,18.028,3.11,23.96,9.333c5.931,6.221,8.896,14.61,8.896,25.161
			c0,8.805-0.054,16.138-0.163,21.995c-0.109,5.858-0.163,10.789-0.163,14.79c0,6.768,0.055,14.627,0.163,23.578
			C1048.465,249.419,1048.555,255.897,1048.628,259.898z"/>
	</g>
	<path d="M1052.963,141.651v-5.523h24.477v5.523h-8.953v24.352h-6.569v-24.352H1052.963z"/>
	<path d="M1092.824,136.127l7.293,20.545h0.088l6.899-20.545h9.652v29.876h-6.42v-21.172h-0.087l-7.643,21.172h-5.285l-7.643-20.963
		h-0.088v20.963h-6.419v-29.876H1092.824z"/>
</g>
</svg>
