<?xml version="1.0" encoding="UTF-8" standalone="no"?>
<!-- Generator: Adobe Illustrator 24.3.0, SVG Export Plug-In . SVG Version: 6.00 Build 0)  -->

<svg
   version="1.1"
   id="_x31_"
   x="0px"
   y="0px"
   width="1162.153"
   height="317.74899"
   viewBox="0 0 1162.153 317.74899"
   enable-background="new 0 0 1200 350"
   xml:space="preserve"
   xmlns="http://www.w3.org/2000/svg"
   xmlns:svg="http://www.w3.org/2000/svg"><defs
   id="defs14" />
<g
   id="g14"
   transform="translate(-18.922999,-16.125)">
	<g
   id="g2">
		<path
   fill="#cbae56"
   d="m 1048.402,172.507 c 9.767,-39.884 -8.547,-62.268 -37.849,-76.105 -29.302,-13.837 -36.221,-35 -17.093,-58.198 7.298,-8.851 16.253,-16.275 24.541,-22.079 h -34.715 l -85.16,317.748 h 44.457 c 87.169,-84.488 96.496,-123.299 105.819,-161.366 z"
   id="path1" />
		<path
   fill="#cbae56"
   d="m 1181.076,16.126 h -123.252 c -48.166,29.447 -44.435,51.453 -2.911,66.846 47.209,17.5 69.593,62.675 40.698,131.454 -20.283,48.28 -54.402,95.555 -72.939,119.448 h 75.076 z"
   id="path2" />
	</g>
	<g
   id="g12"
   style="fill:#ffffff">
		<path
   d="m 148.823,184.034 c -0.074,5.522 -0.164,11.681 -0.273,18.476 -0.11,6.794 -0.164,12.698 -0.164,17.71 0,6.833 0.054,13.719 0.164,20.657 0.109,6.939 0.163,13.279 0.163,19.021 -0.947,0.236 -4.295,0.532 -10.043,0.887 -5.75,0.355 -10.626,0.532 -14.627,0.532 -16.447,0 -31.238,-1.693 -44.373,-5.076 -13.136,-3.385 -25.27,-9.479 -36.404,-18.285 -7.351,-5.747 -13.246,-12.952 -17.684,-21.612 -4.44,-8.66 -6.659,-18.558 -6.659,-29.691 0,-12.298 3.056,-23.288 9.169,-32.967 6.113,-9.677 14.846,-17.792 26.198,-24.342 9.169,-5.529 19.993,-9.751 32.475,-12.662 12.48,-2.909 26.252,-4.366 41.316,-4.366 1.891,0 3.584,0.019 5.076,0.055 1.491,0.037 2.929,0.055 4.312,0.055 l 3.93,30.236 c -0.729,0 -2.038,0 -3.93,0 -1.893,0 -3.676,0 -5.349,0 -7.496,0 -15.429,0.619 -23.797,1.855 -8.37,1.239 -15.937,3.24 -22.705,6.004 -9.169,3.711 -16.393,8.988 -21.668,15.827 -5.277,6.841 -7.914,14.374 -7.914,22.596 0,9.098 2.091,16.739 6.277,22.923 4.184,6.186 9.514,11.026 15.992,14.519 5.093,2.692 10.715,4.748 16.865,6.167 6.149,1.42 12.499,2.275 19.049,2.566 0,-1.382 -0.019,-6.294 -0.055,-14.737 -0.037,-8.441 -0.128,-20.558 -0.273,-36.349 h 34.932 z"
   id="path3"
   style="fill:#ffffff" />
		<path
   d="m 245.962,173.335 c -5.968,1.82 -12.662,4.113 -20.085,6.878 -7.423,2.767 -17.066,6.841 -28.927,12.226 0,1.82 -0.019,5.131 -0.054,9.934 -0.038,4.802 -0.055,9.678 -0.055,14.626 0,7.715 0.072,16.339 0.218,25.871 0.145,9.535 0.218,15.211 0.218,17.029 h -33.512 c 0,-2.183 0.054,-7.641 0.164,-16.374 0.109,-8.733 0.163,-20.413 0.163,-35.039 0,-6.986 -0.037,-15.791 -0.109,-26.417 -0.074,-10.624 -0.147,-21.832 -0.218,-33.621 h 32.748 l -0.109,16.047 0.218,0.109 c 6.913,-4.293 14.335,-8.312 22.268,-12.061 7.931,-3.748 14.117,-6.278 18.557,-7.587 z"
   id="path4"
   style="fill:#ffffff" />
		<path
   d="m 336.69,204.119 h -75.756 c 0.072,5.604 1.654,10.789 4.749,15.554 3.092,4.768 7.805,8.643 14.136,11.626 4.438,1.965 9.115,3.367 14.027,4.203 4.912,0.837 10.315,1.255 16.21,1.255 4.656,0 8.695,-0.071 12.117,-0.218 3.42,-0.145 5.93,-0.255 7.532,-0.328 l -3.384,23.906 c -1.528,0.145 -4.093,0.308 -7.696,0.491 -3.602,0.181 -7.733,0.273 -12.389,0.273 -12.662,0 -23.924,-1.401 -33.784,-4.203 -9.862,-2.801 -18.249,-7.041 -25.161,-12.717 -5.823,-4.803 -10.517,-10.734 -14.082,-17.794 -3.567,-7.057 -5.349,-14.846 -5.349,-23.358 0,-8.442 1.31,-15.973 3.93,-22.596 2.62,-6.621 6.877,-12.952 12.772,-18.994 4.875,-5.021 10.916,-8.877 18.12,-11.571 7.204,-2.691 14.518,-4.038 21.941,-4.038 7.859,0 14.881,1.11 21.068,3.328 6.185,2.221 11.497,5.55 15.937,9.988 5.24,5.24 9.06,11.555 11.462,18.94 2.399,7.387 3.6,16.138 3.6,26.253 z m -31.329,-14.628 c -0.655,-7.131 -2.857,-12.807 -6.604,-17.029 -3.749,-4.219 -8.896,-6.33 -15.446,-6.33 -6.405,0 -11.68,2.092 -15.828,6.276 -4.148,4.185 -6.841,9.879 -8.078,17.083 z"
   id="path5"
   style="fill:#ffffff" />
		<path
   d="m 435.04,201.882 c 0,17.813 -0.019,31.554 -0.054,41.223 -0.038,9.669 -0.055,15.266 -0.055,16.793 -1.165,0.153 -5.895,0.502 -14.191,1.044 -8.296,0.541 -17.102,0.813 -26.416,0.813 -6.113,0 -13.082,-0.51 -20.904,-1.529 -7.824,-1.018 -14.355,-2.655 -19.594,-4.912 -6.696,-2.909 -11.936,-6.749 -15.719,-11.516 -3.785,-4.766 -5.676,-10.352 -5.676,-16.757 0,-6.986 2.019,-12.952 6.059,-17.902 4.038,-4.948 10.351,-9.022 18.939,-12.225 5.748,-2.183 12.843,-3.891 21.286,-5.13 8.441,-1.236 16.082,-2.11 22.923,-2.62 -0.218,-3.93 -1.256,-7.15 -3.111,-9.661 -1.856,-2.51 -5.004,-4.456 -9.443,-5.84 -2.912,-0.944 -6.132,-1.618 -9.661,-2.02 -3.53,-0.399 -7.733,-0.6 -12.608,-0.6 -4.44,0 -8.224,0.074 -11.353,0.218 -3.13,0.147 -6.514,0.292 -10.152,0.437 l 2.947,-24.342 c 1.455,-0.072 3.783,-0.165 6.986,-0.273 3.201,-0.11 7.713,-0.163 13.536,-0.163 12.298,0 22.542,1.053 30.728,3.162 8.188,2.108 15.081,5.598 20.686,10.469 5.166,4.436 8.932,9.835 11.298,16.196 2.365,6.362 3.549,14.74 3.549,25.135 z m -31.656,20.139 c 0,-2.329 0,-5.039 0,-8.133 0,-3.093 -0.037,-6.349 -0.109,-9.769 -2.111,0.072 -5.859,0.49 -11.243,1.255 -5.386,0.764 -10.189,2.057 -14.409,3.875 -2.912,1.165 -5.586,2.985 -8.023,5.458 -2.439,2.475 -3.657,5.532 -3.657,9.169 0,4.077 1.073,7.314 3.22,9.715 2.146,2.403 4.93,4.258 8.351,5.568 2.473,0.873 5.275,1.528 8.405,1.965 3.128,0.437 6.512,0.655 10.152,0.655 0.945,0 2.037,-0.018 3.275,-0.055 1.236,-0.035 2.546,-0.054 3.93,-0.054 0,-0.946 0.017,-3.166 0.055,-6.659 0.034,-3.494 0.053,-7.823 0.053,-12.99 z"
   id="path6"
   style="fill:#ffffff" />
		<path
   d="m 528.565,236.757 -3.166,23.905 c -1.02,0.072 -2.729,0.146 -5.13,0.219 -2.402,0.071 -5.531,0.109 -9.388,0.109 -17.684,0 -31.02,-3.365 -40.007,-10.098 -8.989,-6.73 -13.481,-16.756 -13.481,-30.073 0,-8.514 0.036,-16.391 0.109,-23.633 0.072,-7.24 0.109,-15.555 0.109,-24.942 h -18.12 v -23.798 h 18.994 v -29.145 h 32.202 v 29.145 h 37.442 v 23.798 h -37.442 c 0,1.601 -0.037,4.785 -0.109,9.551 -0.074,4.767 -0.109,8.678 -0.109,11.734 0,2.402 0.017,5.332 0.055,8.788 0.036,3.456 0.054,7.078 0.054,10.86 0,7.933 2.219,13.846 6.659,17.739 4.438,3.894 12.625,5.84 24.561,5.84 1.382,0 2.729,0 4.039,0 1.309,0.001 2.218,0.001 2.728,0.001 z"
   id="path7"
   style="fill:#ffffff" />
		<path
   d="m 662.124,259.898 c -2.62,0 -9.863,-0.036 -21.723,-0.11 -11.863,-0.071 -23.652,-0.109 -35.368,-0.109 -10.116,0 -19.977,0.037 -29.583,0.109 -9.606,0.074 -16.592,0.11 -20.958,0.11 0.072,-3.86 0.165,-12.253 0.273,-25.18 0.11,-12.926 0.163,-29.295 0.163,-49.103 0,-8.374 -0.037,-19.044 -0.109,-32.006 -0.074,-12.962 -0.182,-26.181 -0.328,-39.656 4.949,0 11.989,0.02 21.123,0.055 9.132,0.037 18.32,0.055 27.563,0.055 12.589,0 24.923,-0.018 37.004,-0.055 12.079,-0.035 18.92,-0.055 20.522,-0.055 v 26.963 c -1.239,0 -6.003,-0.036 -14.299,-0.109 -8.296,-0.073 -16.631,-0.11 -24.998,-0.11 -4.877,0 -10.553,0.019 -17.029,0.055 -6.478,0.037 -11.571,0.055 -15.282,0.055 0,5.477 -0.037,11.244 -0.11,17.303 -0.072,6.059 -0.109,11.535 -0.109,16.426 3.783,0 8.604,0.019 14.464,0.055 5.857,0.037 10.679,0.054 14.463,0.054 9.389,0 18.175,-0.035 26.363,-0.109 8.186,-0.071 13.407,-0.109 15.664,-0.109 v 21.722 c -1.457,0 -7.096,-0.036 -16.919,-0.11 -9.826,-0.071 -18.049,-0.109 -24.671,-0.109 -3.71,0 -8.568,0.019 -14.572,0.055 -6.003,0.037 -10.935,0.054 -14.791,0.054 0,8.515 0.018,15.811 0.055,21.886 0.035,6.078 0.09,11.044 0.163,14.901 4.366,0.074 10.187,0.128 17.465,0.163 7.276,0.037 13.863,0.055 19.758,0.055 8.296,0 15.827,-0.036 22.595,-0.109 6.768,-0.072 11.17,-0.11 13.209,-0.11 v 27.073 z"
   id="path8"
   style="fill:#ffffff" />
		<path
   d="m 767.567,201.882 c 0,17.813 -0.019,31.554 -0.054,41.223 -0.037,9.669 -0.055,15.266 -0.055,16.793 -1.165,0.153 -5.895,0.502 -14.191,1.044 -8.296,0.541 -17.102,0.813 -26.417,0.813 -6.113,0 -13.082,-0.51 -20.904,-1.529 -7.824,-1.018 -14.355,-2.655 -19.595,-4.912 -6.695,-2.909 -11.935,-6.749 -15.719,-11.516 -3.784,-4.766 -5.676,-10.352 -5.676,-16.757 0,-6.986 2.02,-12.952 6.059,-17.902 4.038,-4.948 10.351,-9.022 18.939,-12.225 5.747,-2.183 12.843,-3.891 21.285,-5.13 8.442,-1.236 16.083,-2.11 22.925,-2.62 -0.219,-3.93 -1.256,-7.15 -3.111,-9.661 -1.856,-2.51 -5.005,-4.456 -9.443,-5.84 -2.912,-0.944 -6.132,-1.618 -9.661,-2.02 -3.53,-0.399 -7.733,-0.6 -12.608,-0.6 -4.44,0 -8.225,0.074 -11.353,0.218 -3.13,0.147 -6.513,0.292 -10.151,0.437 l 2.947,-24.342 c 1.455,-0.072 3.783,-0.165 6.986,-0.273 3.201,-0.11 7.712,-0.163 13.536,-0.163 12.297,0 22.542,1.053 30.728,3.162 8.188,2.108 15.081,5.598 20.685,10.469 5.167,4.436 8.932,9.835 11.299,16.196 2.366,6.362 3.549,14.74 3.549,25.135 z m -31.655,20.139 c 0,-2.329 0,-5.039 0,-8.133 0,-3.093 -0.039,-6.349 -0.11,-9.769 -2.112,0.072 -5.858,0.49 -11.243,1.255 -5.387,0.764 -10.19,2.057 -14.409,3.875 -2.912,1.165 -5.586,2.985 -8.024,5.458 -2.439,2.475 -3.657,5.532 -3.657,9.169 0,4.077 1.073,7.314 3.22,9.715 2.146,2.403 4.929,4.258 8.351,5.568 2.473,0.873 5.276,1.528 8.406,1.965 3.128,0.437 6.511,0.655 10.151,0.655 0.945,0 2.036,-0.018 3.275,-0.055 1.236,-0.035 2.546,-0.054 3.93,-0.054 0,-0.946 0.018,-3.166 0.055,-6.659 0.035,-3.494 0.055,-7.823 0.055,-12.99 z"
   id="path9"
   style="fill:#ffffff" />
		<path
   d="m 865.143,173.335 c -5.968,1.82 -12.662,4.113 -20.085,6.878 -7.423,2.767 -17.066,6.841 -28.927,12.226 0,1.82 -0.02,5.131 -0.055,9.934 -0.037,4.802 -0.055,9.678 -0.055,14.626 0,7.715 0.071,16.339 0.218,25.871 0.145,9.535 0.218,15.211 0.218,17.029 h -33.511 c 0,-2.183 0.054,-7.641 0.163,-16.374 0.109,-8.733 0.163,-20.413 0.163,-35.039 0,-6.986 -0.037,-15.791 -0.11,-26.417 -0.072,-10.624 -0.146,-21.832 -0.217,-33.621 h 32.748 l -0.11,16.047 0.218,0.109 c 6.913,-4.293 14.335,-8.312 22.268,-12.061 7.931,-3.748 14.117,-6.278 18.557,-7.587 z"
   id="path10"
   style="fill:#ffffff" />
		<path
   d="m 935.225,236.757 -3.165,23.905 c -1.02,0.072 -2.728,0.146 -5.131,0.219 -2.4,0.071 -5.53,0.109 -9.386,0.109 -17.685,0 -31.021,-3.365 -40.007,-10.098 -8.988,-6.73 -13.482,-16.756 -13.482,-30.073 0,-8.514 0.036,-16.391 0.11,-23.633 0.071,-7.24 0.11,-15.555 0.11,-24.942 h -18.122 v -23.798 h 18.995 v -29.145 h 32.201 v 29.145 h 37.441 v 23.798 h -37.441 c 0,1.601 -0.037,4.785 -0.11,9.551 -0.072,4.767 -0.109,8.678 -0.109,11.734 0,2.402 0.018,5.332 0.055,8.788 0.035,3.456 0.054,7.078 0.054,10.86 0,7.933 2.219,13.846 6.659,17.739 4.438,3.894 12.625,5.84 24.561,5.84 1.381,0 2.728,0 4.038,0 1.311,0.001 2.22,0.001 2.729,0.001 z"
   id="path11"
   style="fill:#ffffff" />
		<path
   d="m 1048.628,259.898 h -33.511 c 0,-2.983 0.054,-9.988 0.163,-21.013 0.109,-11.024 0.163,-18.502 0.163,-22.432 0,-3.638 -0.037,-7.822 -0.11,-12.554 -0.072,-4.729 -0.109,-8.803 -0.109,-12.225 -0.147,-6.986 -1.329,-11.915 -3.548,-14.791 -2.221,-2.873 -5.987,-4.311 -11.298,-4.311 -3.493,0 -7.66,0.892 -12.499,2.675 -4.84,1.784 -9.588,4.022 -14.244,6.713 l 0.327,77.939 h -33.511 c 0,-5.24 0.054,-15.774 0.163,-31.601 0.109,-15.829 0.163,-33.201 0.163,-52.123 0,-9.897 -0.037,-21.304 -0.11,-34.222 -0.072,-12.916 -0.146,-26.943 -0.217,-42.081 h 33.511 l -0.437,58.728 0.218,0.11 c 6.768,-3.713 14.009,-6.823 21.723,-9.334 7.712,-2.51 14.444,-3.765 20.194,-3.765 10.043,0 18.028,3.11 23.96,9.333 5.931,6.221 8.896,14.61 8.896,25.161 0,8.805 -0.054,16.138 -0.163,21.995 -0.109,5.858 -0.163,10.789 -0.163,14.79 0,6.768 0.055,14.627 0.163,23.578 0.113,8.951 0.203,15.429 0.276,19.43 z"
   id="path12"
   style="fill:#ffffff" />
	</g>
	<path
   d="m 1052.963,141.651 v -5.523 h 24.477 v 5.523 h -8.953 v 24.352 h -6.569 v -24.352 z"
   id="path13"
   style="fill:#ffffff" />
	<path
   d="m 1092.824,136.127 7.293,20.545 h 0.088 l 6.899,-20.545 h 9.652 v 29.876 h -6.42 v -21.172 h -0.087 l -7.643,21.172 h -5.285 l -7.643,-20.963 h -0.088 v 20.963 h -6.419 v -29.876 z"
   id="path14"
   style="fill:#ffffff" />
</g>
</svg>
